<mxfile host="65bd71144e" scale="1" border="10">
    <diagram name="Page-1" id="9CptkLMM0ztSRVp6YB5i">
        <mxGraphModel dx="1488" dy="857" grid="0" gridSize="10" guides="1" tooltips="1" connect="1" arrows="1" fold="1" page="1" pageScale="1" pageWidth="827" pageHeight="583" background="#FFFFFF" math="1" shadow="0">
            <root>
                <mxCell id="0"/>
                <mxCell id="1" parent="0"/>
                <mxCell id="IWCZdA42NEQNfxDkU8em-257" value="" style="edgeStyle=orthogonalEdgeStyle;curved=1;rounded=0;orthogonalLoop=1;jettySize=auto;html=1;entryX=0.47;entryY=1.071;entryDx=0;entryDy=0;entryPerimeter=0;" parent="1" edge="1">
                    <mxGeometry relative="1" as="geometry">
                        <mxPoint x="516.3100000000001" y="400.28" as="sourcePoint"/>
                    </mxGeometry>
                </mxCell>
                <mxCell id="IWCZdA42NEQNfxDkU8em-532" value="&lt;b style=&quot;&quot;&gt;&lt;font style=&quot;font-size: 8px; color: rgb(199, 199, 199);&quot;&gt;@iriacardielperez&lt;/font&gt;&lt;/b&gt;" style="text;html=1;align=center;verticalAlign=middle;whiteSpace=wrap;rounded=0;rotation=0;" parent="1" vertex="1">
                    <mxGeometry x="-203.23999999999995" y="390" width="148.77" height="43" as="geometry"/>
                </mxCell>
                <mxCell id="60" value="&lt;pre style=&quot;text-wrap-mode: nowrap;&quot;&gt;&lt;div style=&quot;text-align: justify;&quot;&gt;&lt;span style=&quot;background-color: transparent; white-space-collapse: collapse; font-size: 6px; font-family: Helvetica;&quot;&gt;The sun peeked through the blinds as I poured myself a cup of black coffee.&lt;/span&gt;&lt;/div&gt;&lt;font style=&quot;font-size: 6px;&quot;&gt;&lt;div style=&quot;text-align: justify;&quot;&gt;&lt;span style=&quot;white-space-collapse: collapse; background-color: transparent; font-family: Helvetica;&quot; data-end=&quot;168&quot; data-start=&quot;145&quot;&gt;My favorite cake is&lt;/span&gt;&lt;span style=&quot;white-space-collapse: collapse; background-color: transparent; font-family: Helvetica;&quot;&gt;&amp;nbsp;lemon drizzle â€” it reminds me of summer afternoons&amp;nbsp;&lt;/span&gt;&lt;/div&gt;&lt;font style=&quot;&quot;&gt;&lt;div style=&quot;text-align: justify;&quot;&gt;&lt;span style=&quot;white-space-collapse: collapse; background-color: transparent; font-family: Helvetica;&quot;&gt;at my grandmother&#39;s house. I took a bite, savoring the tangy sweetness,&amp;nbsp;&lt;/span&gt;&lt;/div&gt;&lt;/font&gt;&lt;font style=&quot;&quot;&gt;&lt;div style=&quot;text-align: justify;&quot;&gt;&lt;span style=&quot;white-space-collapse: collapse; background-color: transparent; font-family: Helvetica;&quot;&gt;when I caught my reflection in the window.&amp;nbsp;&lt;/span&gt;&lt;span style=&quot;white-space-collapse: collapse; background-color: transparent; font-family: Helvetica;&quot; data-end=&quot;354&quot; data-start=&quot;335&quot;&gt;My hair is very&lt;/span&gt;&lt;span style=&quot;white-space-collapse: collapse; background-color: transparent; font-family: Helvetica;&quot;&gt;&amp;nbsp;frizzy today,&amp;nbsp;&lt;/span&gt;&lt;/div&gt;&lt;/font&gt;&lt;font style=&quot;&quot;&gt;&lt;div style=&quot;text-align: justify;&quot;&gt;&lt;font style=&quot;white-space-collapse: collapse; background-color: transparent; font-family: Helvetica;&quot;&gt;probably thanks to the humidity.&amp;nbsp;&lt;/font&gt;&lt;font style=&quot;white-space-collapse: collapse; background-color: transparent; font-family: Helvetica;&quot;&gt;Still, it kind of works with the chaotic energy&lt;/font&gt;&lt;/div&gt;&lt;/font&gt;&lt;font style=&quot;background-color: transparent;&quot;&gt;&lt;div style=&quot;text-align: justify;&quot;&gt;&lt;font style=&quot;white-space-collapse: collapse; background-color: transparent; font-family: Helvetica;&quot;&gt;&amp;nbsp;of the morning.&lt;/font&gt;&lt;font style=&quot;white-space-collapse: collapse; background-color: transparent; font-family: Helvetica;&quot;&gt;&amp;nbsp;&lt;span style=&quot;background-color: transparent;&quot;&gt;I threw on a&amp;nbsp;&lt;/span&gt;&lt;/font&gt;&lt;span style=&quot;white-space-collapse: collapse; background-color: transparent; font-family: Helvetica;&quot;&gt;light jacket and stepped outside, the warm&amp;nbsp;&lt;/span&gt;&lt;/div&gt;&lt;/font&gt;&lt;span style=&quot;background-color: transparent;&quot;&gt;&lt;div style=&quot;text-align: justify;&quot;&gt;&lt;span style=&quot;background-color: transparent; white-space-collapse: collapse; font-family: Helvetica;&quot;&gt;breeze tousling my curls even more. The street was quiet, save for the&amp;nbsp;&lt;/span&gt;&lt;/div&gt;&lt;/span&gt;&lt;span style=&quot;background-color: transparent;&quot;&gt;&lt;div style=&quot;text-align: justify;&quot;&gt;&lt;span style=&quot;background-color: transparent; white-space-collapse: collapse; font-family: Helvetica;&quot;&gt;distant rumble of a delivery truck and the chirping of a persistent sparrow.&amp;nbsp;&lt;/span&gt;&lt;/div&gt;&lt;/span&gt;&lt;/font&gt;&lt;/pre&gt;" style="rounded=1;whiteSpace=wrap;html=1;align=left;arcSize=1;" parent="1" vertex="1">
                    <mxGeometry x="-777.97" y="87" width="208" height="72" as="geometry"/>
                </mxCell>
                <mxCell id="61" style="edgeStyle=orthogonalEdgeStyle;curved=1;rounded=0;orthogonalLoop=1;jettySize=auto;html=1;exitX=1;exitY=0.5;exitDx=0;exitDy=0;entryX=0;entryY=0.5;entryDx=0;entryDy=0;" parent="1" source="60" target="62" edge="1">
                    <mxGeometry relative="1" as="geometry">
                        <mxPoint x="-304.6600000000001" y="123" as="sourcePoint"/>
                        <mxPoint x="-303.48" y="-33" as="targetPoint"/>
                    </mxGeometry>
                </mxCell>
                <mxCell id="62" value="&lt;pre style=&quot;text-wrap-mode: nowrap;&quot;&gt;&lt;div style=&quot;text-align: justify;&quot;&gt;&lt;div&gt;&lt;font face=&quot;Courier New&quot; style=&quot;font-size: 8px;&quot;&gt;87, 4, 196, 122, 93, 30, 11, 65, 73, 101, 142,&lt;/font&gt;&lt;/div&gt;&lt;div&gt;&lt;font face=&quot;Courier New&quot;&gt;&lt;font style=&quot;font-size: 8px;&quot;&gt;163, 190, 175, &lt;font color=&quot;#ff99ff&quot;&gt;100, 13 9, 31&lt;/font&gt;, &lt;font color=&quot;#ff99ff&quot;&gt;41&lt;/font&gt;, 26,&amp;nbsp;&lt;/font&gt;&lt;span style=&quot;font-size: 8px; white-space-collapse: collapse; background-color: transparent;&quot;&gt;155,&amp;nbsp;&lt;/span&gt;&lt;/font&gt;&lt;/div&gt;&lt;div&gt;&lt;span style=&quot;font-size: 8px; white-space-collapse: collapse; background-color: transparent;&quot;&gt;&lt;font face=&quot;Courier New&quot;&gt;68, 103, 44, 12, 25, 6, 83, 33, 97, 187, 179,&lt;/font&gt;&lt;/span&gt;&lt;/div&gt;&lt;div&gt;&lt;span style=&quot;font-size: 8px; white-space-collapse: collapse; background-color: transparent;&quot;&gt;&lt;font face=&quot;Courier New&quot;&gt;115, 99, 167, 5&lt;/font&gt;&lt;/span&gt;&lt;font style=&quot;white-space-collapse: collapse; background-color: transparent;&quot; face=&quot;Courier New&quot;&gt;&lt;span style=&quot;font-size: 8px; background-color: transparent;&quot;&gt;5, 72, 173, 53, 198,&amp;nbsp;&lt;/span&gt;&lt;span style=&quot;font-size: 8px; background-color: transparent;&quot;&gt;17, 120,&lt;/span&gt;&lt;/font&gt;&lt;/div&gt;&lt;div&gt;&lt;font style=&quot;white-space-collapse: collapse; background-color: transparent;&quot; face=&quot;Courier New&quot;&gt;&lt;span style=&quot;font-size: 8px; background-color: transparent;&quot;&gt;36, 195, &lt;font color=&quot;#ff99ff&quot;&gt;100, 12 31, 330&lt;/font&gt;&lt;/span&gt;&lt;/font&gt;&lt;font style=&quot;white-space-collapse: collapse; background-color: transparent;&quot; face=&quot;Courier New&quot;&gt;&lt;span style=&quot;font-size: 8px; background-color: transparent;&quot;&gt;, &lt;font color=&quot;#ff99ff&quot;&gt;50&lt;/font&gt;, 110, 188, &lt;/span&gt;&lt;/font&gt;&lt;span style=&quot;white-space-collapse: collapse; background-color: transparent; font-size: 8px; font-family: Helvetica;&quot;&gt;&amp;nbsp;&lt;/span&gt;&lt;/div&gt;&lt;/div&gt;&lt;/pre&gt;" style="rounded=1;whiteSpace=wrap;html=1;align=left;arcSize=1;" parent="1" vertex="1">
                    <mxGeometry x="-483.33" y="83" width="230" height="76" as="geometry"/>
                </mxCell>
                <mxCell id="63" value="&lt;font color=&quot;#ffffff&quot; style=&quot;font-size: 10px;&quot;&gt;Tokenizer&lt;/font&gt;&lt;div&gt;&lt;font color=&quot;#ffffff&quot; style=&quot;font-size: 10px;&quot;&gt;(encode)&lt;/font&gt;&lt;/div&gt;" style="rounded=1;whiteSpace=wrap;html=1;fillColor=#4C0099;" parent="1" vertex="1">
                    <mxGeometry x="-559.5400000000001" y="106" width="54.22" height="34" as="geometry"/>
                </mxCell>
                <mxCell id="64" value="&lt;font style=&quot;font-size: 8px;&quot;&gt;set of random sequences (samples)&amp;nbsp;&lt;/font&gt;" style="rounded=1;whiteSpace=wrap;html=1;fillColor=#FFFFFF;strokeColor=#FFFFFF;" parent="1" vertex="1">
                    <mxGeometry x="-200.99999999999997" y="78" width="137.54" height="16" as="geometry"/>
                </mxCell>
                <mxCell id="65" value="&lt;span style=&quot;font-size: 10px;&quot;&gt;&lt;b&gt;Dataset split (train / val)&lt;/b&gt;&lt;/span&gt;" style="text;html=1;align=center;verticalAlign=middle;whiteSpace=wrap;rounded=0;" parent="1" vertex="1">
                    <mxGeometry x="-779.48" y="55" width="117" height="30" as="geometry"/>
                </mxCell>
                <mxCell id="69" value="" style="rounded=1;whiteSpace=wrap;html=1;shadow=1;" parent="1" vertex="1">
                    <mxGeometry x="-211.33000000000013" y="97" width="164.95" height="46" as="geometry"/>
                </mxCell>
                <mxCell id="70" value="&lt;div style=&quot;text-align: justify;&quot;&gt;&lt;font style=&quot;font-size: 8px;&quot;&gt;&lt;b style=&quot;background-color: transparent; color: light-dark(rgb(0, 0, 0), rgb(255, 255, 255));&quot;&gt;sequence #1: &lt;/b&gt;&lt;b style=&quot;background-color: transparent;&quot;&gt;&lt;font face=&quot;Courier New&quot; style=&quot;color: light-dark(rgb(255, 153, 255), rgb(255, 255, 255));&quot;&gt;100, 13, 9, 31, 41&lt;/font&gt;&lt;/b&gt;&lt;/font&gt;&lt;/div&gt;&lt;div style=&quot;text-align: justify;&quot;&gt;&lt;b style=&quot;&quot;&gt;&lt;font style=&quot;font-size: 8px;&quot;&gt;sequence #2:&amp;nbsp;&lt;/font&gt;&lt;/b&gt;&lt;b style=&quot;background-color: transparent; font-size: 8px; color: rgb(63, 63, 63);&quot;&gt;&lt;font face=&quot;Courier New&quot; color=&quot;#ff99ff&quot;&gt;100, 12, 31, 330, 50&lt;/font&gt;&lt;/b&gt;&lt;/div&gt;" style="text;html=1;align=center;verticalAlign=middle;whiteSpace=wrap;rounded=0;" parent="1" vertex="1">
                    <mxGeometry x="-208.24999999999997" y="99.05999999999995" width="159" height="37.94" as="geometry"/>
                </mxCell>
                <mxCell id="71" value="&lt;span style=&quot;font-size: 10px;&quot;&gt;&lt;b&gt;Batch&lt;/b&gt;&lt;/span&gt;" style="text;html=1;align=center;verticalAlign=middle;whiteSpace=wrap;rounded=0;" parent="1" vertex="1">
                    <mxGeometry x="-154.71" y="55" width="31.51" height="30" as="geometry"/>
                </mxCell>
                <mxCell id="74" value="&lt;span style=&quot;font-size: 10px;&quot;&gt;&lt;b&gt;batch_size = 2&lt;/b&gt;&lt;/span&gt;&lt;div&gt;&lt;span style=&quot;font-size: 10px;&quot;&gt;&lt;b&gt;seq_size = 5&lt;/b&gt;&lt;/span&gt;&lt;/div&gt;" style="text;html=1;align=center;verticalAlign=middle;whiteSpace=wrap;rounded=0;" parent="1" vertex="1">
                    <mxGeometry x="-187.99999999999997" y="152" width="109.5" height="21" as="geometry"/>
                </mxCell>
                <mxCell id="75" value="&lt;span style=&quot;font-size: 10px;&quot;&gt;&lt;b&gt;Each batch provides several input-target pairs:&amp;nbsp;&lt;/b&gt;&lt;/span&gt;" style="text;html=1;align=left;verticalAlign=middle;whiteSpace=wrap;rounded=0;" parent="1" vertex="1">
                    <mxGeometry x="-778.44" y="178" width="339.22" height="30" as="geometry"/>
                </mxCell>
                <mxCell id="76" value="&lt;div style=&quot;text-align: justify;&quot;&gt;&lt;font style=&quot;font-size: 8px;&quot;&gt;&lt;b style=&quot;background-color: transparent; color: light-dark(rgb(0, 0, 0), rgb(255, 255, 255));&quot;&gt;For sequence #1:&amp;nbsp;&lt;/b&gt;&lt;/font&gt;&lt;/div&gt;&lt;div style=&quot;text-align: justify;&quot;&gt;&lt;font style=&quot;font-size: 8px;&quot;&gt;&lt;b style=&quot;background-color: transparent;&quot;&gt;&lt;font style=&quot;&quot;&gt;Input&amp;nbsp;&lt;/font&gt;&lt;font face=&quot;Courier New&quot; style=&quot;color: light-dark(rgb(255, 153, 255), rgb(255, 255, 255));&quot;&gt;100&amp;nbsp;&lt;/font&gt;&lt;/b&gt;&lt;b style=&quot;color: rgb(63, 63, 63); background-color: transparent;&quot;&gt;Target&amp;nbsp;&lt;/b&gt;&lt;b style=&quot;background-color: transparent;&quot;&gt;&lt;font color=&quot;#ff8000&quot; face=&quot;Courier New&quot;&gt;13&lt;/font&gt;&lt;/b&gt;&lt;/font&gt;&lt;/div&gt;&lt;div style=&quot;text-align: justify;&quot;&gt;&lt;font style=&quot;font-size: 8px;&quot;&gt;&lt;div style=&quot;font-size: 12px;&quot;&gt;&lt;font style=&quot;font-size: 8px;&quot;&gt;&lt;b style=&quot;color: rgb(63, 63, 63); background-color: transparent;&quot;&gt;Input&amp;nbsp;&lt;/b&gt;&lt;b style=&quot;background-color: transparent;&quot;&gt;&lt;font color=&quot;#ff99ff&quot; face=&quot;Courier New&quot;&gt;100, 13&amp;nbsp;&lt;/font&gt;&lt;/b&gt;&lt;/font&gt;&lt;b style=&quot;color: rgb(63, 63, 63); font-size: 8px; background-color: transparent;&quot;&gt;Target&amp;nbsp;&amp;nbsp;&lt;/b&gt;&lt;b style=&quot;font-size: 8px; background-color: transparent;&quot;&gt;&lt;font color=&quot;#ff8000&quot; face=&quot;Courier New&quot;&gt;9&lt;/font&gt;&lt;/b&gt;&lt;/div&gt;&lt;div&gt;&lt;font style=&quot;font-size: 8px;&quot;&gt;&lt;div style=&quot;font-size: 12px;&quot;&gt;&lt;font style=&quot;font-size: 8px;&quot;&gt;&lt;b style=&quot;color: rgb(63, 63, 63); background-color: transparent;&quot;&gt;Input&amp;nbsp;&lt;/b&gt;&lt;b style=&quot;background-color: transparent;&quot;&gt;&lt;font color=&quot;#ff99ff&quot; face=&quot;Courier New&quot;&gt;100, 13, 9&amp;nbsp;&lt;/font&gt;&lt;/b&gt;&lt;/font&gt;&lt;b style=&quot;color: rgb(63, 63, 63); font-size: 8px; background-color: transparent;&quot;&gt;Target&amp;nbsp;&amp;nbsp;&lt;/b&gt;&lt;b style=&quot;font-size: 8px; background-color: transparent;&quot;&gt;&lt;font color=&quot;#ff8000&quot; face=&quot;Courier New&quot;&gt;31&lt;/font&gt;&lt;/b&gt;&lt;/div&gt;&lt;div style=&quot;font-size: 12px;&quot;&gt;&lt;div&gt;&lt;font style=&quot;font-size: 8px;&quot;&gt;&lt;b style=&quot;background-color: transparent; color: rgb(63, 63, 63);&quot;&gt;Input&amp;nbsp;&lt;/b&gt;&lt;b style=&quot;background-color: transparent;&quot;&gt;&lt;font face=&quot;Courier New&quot;&gt;&lt;font color=&quot;#ff99ff&quot;&gt;100, 13, 9, 31&lt;/font&gt;&amp;nbsp;&lt;/font&gt;&lt;/b&gt;&lt;/font&gt;&lt;b style=&quot;font-size: 8px; background-color: transparent; color: rgb(63, 63, 63);&quot;&gt;Target&amp;nbsp;&amp;nbsp;&lt;/b&gt;&lt;b style=&quot;font-size: 8px; background-color: transparent;&quot;&gt;&lt;font color=&quot;#ff8000&quot; face=&quot;Courier New&quot;&gt;41&lt;/font&gt;&lt;/b&gt;&lt;/div&gt;&lt;/div&gt;&lt;div&gt;&lt;font style=&quot;font-size: 8px;&quot;&gt;&lt;div style=&quot;font-size: 12px;&quot;&gt;&lt;br&gt;&lt;/div&gt;&lt;/font&gt;&lt;/div&gt;&lt;/font&gt;&lt;/div&gt;&lt;/font&gt;&lt;/div&gt;&lt;div style=&quot;text-align: justify;&quot;&gt;&lt;b style=&quot;&quot;&gt;&lt;font style=&quot;font-size: 8px;&quot;&gt;For sequence #2:&amp;nbsp;&lt;/font&gt;&lt;/b&gt;&lt;/div&gt;&lt;div style=&quot;text-align: justify;&quot;&gt;&lt;b style=&quot;background-color: transparent; font-size: 8px; color: rgb(63, 63, 63);&quot;&gt;&lt;font face=&quot;Courier New&quot; color=&quot;#ff99ff&quot;&gt;&lt;b style=&quot;background-color: transparent; font-family: Helvetica; color: rgb(63, 63, 63);&quot;&gt;Input&amp;nbsp;&lt;/b&gt;100&amp;nbsp;&lt;/font&gt;&lt;/b&gt;&lt;b style=&quot;background-color: transparent; font-size: 8px; color: rgb(63, 63, 63);&quot;&gt;Target&amp;nbsp;&amp;nbsp;&lt;/b&gt;&lt;b style=&quot;background-color: transparent; font-size: 8px; color: rgb(63, 63, 63);&quot;&gt;&lt;font color=&quot;#ff8000&quot; face=&quot;Courier New&quot;&gt;12&lt;/font&gt;&lt;/b&gt;&lt;/div&gt;&lt;div style=&quot;text-align: justify;&quot;&gt;&lt;b style=&quot;background-color: transparent; font-size: 8px; color: rgb(63, 63, 63);&quot;&gt;&lt;b style=&quot;background-color: transparent; color: rgb(63, 63, 63);&quot;&gt;Input&amp;nbsp;&lt;/b&gt;&lt;font face=&quot;Courier New&quot;&gt;&lt;b style=&quot;font-family: Helvetica; background-color: transparent; color: rgb(63, 63, 63);&quot;&gt;&lt;font color=&quot;#ff99ff&quot; face=&quot;Courier New&quot;&gt;100, 12&amp;nbsp;&lt;/font&gt;&lt;/b&gt;&lt;/font&gt;&lt;/b&gt;&lt;b style=&quot;background-color: transparent; font-size: 8px; color: rgb(63, 63, 63);&quot;&gt;Target&amp;nbsp;&amp;nbsp;&lt;/b&gt;&lt;b style=&quot;background-color: transparent; font-size: 8px; color: rgb(63, 63, 63);&quot;&gt;&lt;font style=&quot;&quot; face=&quot;Courier New&quot;&gt;&lt;b style=&quot;font-family: Helvetica; background-color: transparent; color: rgb(63, 63, 63);&quot;&gt;&lt;font color=&quot;#ff8000&quot; face=&quot;Courier New&quot;&gt;31&lt;/font&gt;&lt;/b&gt;&lt;/font&gt;&lt;/b&gt;&lt;/div&gt;&lt;div style=&quot;text-align: justify;&quot;&gt;&lt;b style=&quot;background-color: transparent; font-size: 8px; color: rgb(63, 63, 63);&quot;&gt;&lt;b style=&quot;background-color: transparent; color: rgb(63, 63, 63);&quot;&gt;Input&amp;nbsp;&lt;/b&gt;&lt;font face=&quot;Courier New&quot;&gt;&lt;b style=&quot;font-family: Helvetica; background-color: transparent; color: rgb(63, 63, 63);&quot;&gt;&lt;font face=&quot;Courier New&quot;&gt;&lt;b style=&quot;font-family: Helvetica; background-color: transparent; color: rgb(63, 63, 63);&quot;&gt;&lt;font color=&quot;#ff99ff&quot; face=&quot;Courier New&quot;&gt;100, 12, 31&amp;nbsp;&lt;/font&gt;&lt;/b&gt;&lt;/font&gt;&lt;/b&gt;&lt;/font&gt;&lt;/b&gt;&lt;b style=&quot;background-color: transparent; font-size: 8px; color: rgb(63, 63, 63);&quot;&gt;Target&amp;nbsp;&lt;/b&gt;&lt;b style=&quot;background-color: transparent; font-size: 8px; color: rgb(63, 63, 63);&quot;&gt;&lt;font face=&quot;Courier New&quot;&gt;&lt;b style=&quot;font-family: Helvetica; background-color: transparent; color: rgb(63, 63, 63);&quot;&gt;&lt;font face=&quot;Courier New&quot;&gt;&lt;b style=&quot;font-family: Helvetica; background-color: transparent; color: rgb(63, 63, 63);&quot;&gt;&lt;font color=&quot;#ff8000&quot; face=&quot;Courier New&quot;&gt;330&lt;/font&gt;&lt;/b&gt;&lt;/font&gt;&lt;/b&gt;&lt;/font&gt;&lt;/b&gt;&lt;/div&gt;&lt;div style=&quot;text-align: justify;&quot;&gt;&lt;b style=&quot;background-color: transparent; font-size: 8px; color: rgb(63, 63, 63);&quot;&gt;&lt;b style=&quot;background-color: transparent; color: rgb(63, 63, 63);&quot;&gt;&lt;b style=&quot;color: rgb(63, 63, 63); background-color: transparent;&quot;&gt;Input&amp;nbsp;&lt;/b&gt;&lt;font style=&quot;&quot; face=&quot;Courier New&quot;&gt;&lt;b style=&quot;font-family: Helvetica; background-color: transparent; color: rgb(63, 63, 63);&quot;&gt;&lt;font style=&quot;&quot; face=&quot;Courier New&quot;&gt;&lt;b style=&quot;font-family: Helvetica; background-color: transparent; color: rgb(63, 63, 63);&quot;&gt;&lt;font face=&quot;Courier New&quot;&gt;&lt;font color=&quot;#ff99ff&quot;&gt;100, 12, 31, 330&lt;/font&gt;&lt;font color=&quot;rgba(0, 0, 0, 0)&quot;&gt;&amp;nbsp;&lt;/font&gt;&lt;/font&gt;&lt;/b&gt;&lt;/font&gt;&lt;/b&gt;&lt;/font&gt;&lt;/b&gt;&lt;b style=&quot;color: rgb(63, 63, 63); background-color: transparent;&quot;&gt;Target&amp;nbsp;&lt;/b&gt;&lt;b style=&quot;background-color: transparent; color: rgb(63, 63, 63);&quot;&gt;&lt;font style=&quot;&quot; face=&quot;Courier New&quot;&gt;&lt;b style=&quot;font-family: Helvetica; background-color: transparent; color: rgb(63, 63, 63);&quot;&gt;&lt;font style=&quot;&quot; face=&quot;Courier New&quot;&gt;&lt;b style=&quot;font-family: Helvetica; background-color: transparent; color: rgb(63, 63, 63);&quot;&gt;&lt;font color=&quot;#ff8000&quot; face=&quot;Courier New&quot;&gt;50&lt;/font&gt;&lt;/b&gt;&lt;/font&gt;&lt;/b&gt;&lt;/font&gt;&lt;/b&gt;&lt;font style=&quot;color: light-dark(rgb(63, 63, 63), rgb(183, 183, 183));&quot; face=&quot;Courier New&quot;&gt;&lt;b style=&quot;font-family: Helvetica; background-color: transparent; color: rgb(63, 63, 63);&quot;&gt;&lt;font face=&quot;Courier New&quot;&gt;&lt;b style=&quot;font-family: Helvetica; background-color: transparent; color: rgb(63, 63, 63);&quot;&gt;&lt;font color=&quot;#ff8000&quot; face=&quot;Courier New&quot;&gt;&lt;/font&gt;&lt;/b&gt;&lt;/font&gt;&lt;/b&gt;&lt;/font&gt;&lt;/b&gt;&lt;/div&gt;&lt;div style=&quot;text-align: justify;&quot;&gt;&lt;b style=&quot;background-color: transparent; font-size: 8px; color: rgb(63, 63, 63);&quot;&gt;&lt;font face=&quot;Courier New&quot;&gt;&lt;b style=&quot;font-family: Helvetica; background-color: transparent; color: rgb(63, 63, 63);&quot;&gt;&lt;font face=&quot;Courier New&quot;&gt;&lt;b style=&quot;font-family: Helvetica; background-color: transparent; color: rgb(63, 63, 63);&quot;&gt;&lt;font color=&quot;#ff8000&quot; face=&quot;Courier New&quot;&gt;&lt;br&gt;&lt;/font&gt;&lt;/b&gt;&lt;/font&gt;&lt;/b&gt;&lt;/font&gt;&lt;/b&gt;&lt;/div&gt;&lt;div style=&quot;text-align: justify;&quot;&gt;&lt;br&gt;&lt;/div&gt;" style="text;html=1;align=center;verticalAlign=middle;whiteSpace=wrap;rounded=0;" parent="1" vertex="1">
                    <mxGeometry x="-788" y="205" width="173.29" height="185" as="geometry"/>
                </mxCell>
                <mxCell id="80" style="edgeStyle=orthogonalEdgeStyle;curved=1;rounded=0;orthogonalLoop=1;jettySize=auto;html=1;exitX=1;exitY=0.5;exitDx=0;exitDy=0;entryX=0;entryY=0.5;entryDx=0;entryDy=0;" parent="1" source="62" target="69" edge="1">
                    <mxGeometry relative="1" as="geometry">
                        <mxPoint x="-560.33" y="133" as="sourcePoint"/>
                        <mxPoint x="-473.33" y="131" as="targetPoint"/>
                    </mxGeometry>
                </mxCell>
                <mxCell id="82" value="&lt;div style=&quot;text-align: justify;&quot;&gt;&lt;span style=&quot;font-size: 8px; background-color: transparent;&quot;&gt;&lt;font color=&quot;#000000&quot;&gt;&lt;b&gt;xb&lt;/b&gt; = [&lt;/font&gt;&lt;/span&gt;&lt;/div&gt;&lt;div style=&quot;text-align: justify;&quot;&gt;&lt;span style=&quot;font-size: 8px; background-color: transparent;&quot;&gt;&lt;font color=&quot;#000000&quot;&gt;&lt;span style=&quot;white-space: pre;&quot;&gt;&#x9;&lt;/span&gt;[&lt;/font&gt;&lt;/span&gt;&lt;span style=&quot;font-size: 8px; background-color: transparent; color: rgb(63, 63, 63);&quot;&gt;&lt;font color=&quot;#ff99ff&quot; face=&quot;Courier New&quot;&gt;100, 13, 9, 31&lt;/font&gt;&lt;/span&gt;&lt;span style=&quot;background-color: transparent; font-size: 8px;&quot;&gt;&lt;font&gt;],&lt;/font&gt;&lt;/span&gt;&lt;/div&gt;&lt;div style=&quot;text-align: justify;&quot;&gt;&lt;span style=&quot;background-color: transparent; font-size: 8px;&quot;&gt;&lt;font&gt;&lt;span style=&quot;white-space: pre;&quot;&gt;&#x9;&lt;/span&gt;[&lt;/font&gt;&lt;/span&gt;&lt;span style=&quot;background-color: transparent; font-size: 8px; color: rgb(63, 63, 63);&quot;&gt;&lt;font color=&quot;#ff99ff&quot; face=&quot;Courier New&quot;&gt;100, 12, 31, 330&lt;/font&gt;&lt;/span&gt;&lt;span style=&quot;background-color: transparent; font-size: 8px;&quot;&gt;]&lt;/span&gt;&lt;/div&gt;&lt;div style=&quot;text-align: justify;&quot;&gt;&lt;span style=&quot;background-color: transparent; font-size: 8px;&quot;&gt;]&lt;/span&gt;&lt;/div&gt;&lt;div style=&quot;text-align: justify;&quot;&gt;&lt;span style=&quot;font-size: 8px; background-color: transparent;&quot;&gt;&lt;br&gt;&lt;/span&gt;&lt;/div&gt;&lt;div style=&quot;text-align: justify;&quot;&gt;&lt;span style=&quot;font-size: 8px; background-color: transparent;&quot;&gt;&lt;b&gt;yb&lt;/b&gt; = [&lt;/span&gt;&lt;/div&gt;&lt;div style=&quot;text-align: justify;&quot;&gt;&lt;span style=&quot;font-size: 8px; background-color: transparent;&quot;&gt;&lt;span style=&quot;white-space: pre;&quot;&gt;&#x9;&lt;/span&gt;[&lt;font color=&quot;#ff8000&quot; face=&quot;Courier New&quot;&gt;13, 9, 31, 41&lt;/font&gt;],&lt;/span&gt;&lt;/div&gt;&lt;div style=&quot;text-align: justify;&quot;&gt;&lt;span style=&quot;font-size: 8px; background-color: transparent;&quot;&gt;&lt;span style=&quot;white-space: pre;&quot;&gt;&#x9;&lt;/span&gt;[&lt;font color=&quot;#ff8000&quot; face=&quot;Courier New&quot;&gt;12, 31, 330, 50&lt;/font&gt;]&lt;/span&gt;&lt;/div&gt;&lt;div style=&quot;text-align: justify;&quot;&gt;&lt;span style=&quot;font-size: 8px; background-color: transparent;&quot;&gt;]&lt;/span&gt;&lt;/div&gt;" style="text;html=1;align=center;verticalAlign=middle;whiteSpace=wrap;rounded=0;" parent="1" vertex="1">
                    <mxGeometry x="-566.86" y="217" width="149.22" height="144" as="geometry"/>
                </mxCell>
                <mxCell id="83" value="" style="shape=flexArrow;endArrow=classic;html=1;exitX=1.015;exitY=0.449;exitDx=0;exitDy=0;exitPerimeter=0;" parent="1" source="76" target="82" edge="1">
                    <mxGeometry width="50" height="50" relative="1" as="geometry">
                        <mxPoint x="-487.36" y="216" as="sourcePoint"/>
                        <mxPoint x="-437.36" y="166" as="targetPoint"/>
                    </mxGeometry>
                </mxCell>
                <mxCell id="84" value="" style="rounded=0;whiteSpace=wrap;html=1;fillColor=none;strokeColor=#FF99FF;" parent="1" vertex="1">
                    <mxGeometry x="-412.72999999999996" y="101.05999999999995" width="70" height="11" as="geometry"/>
                </mxCell>
                <mxCell id="85" value="" style="rounded=0;whiteSpace=wrap;html=1;fillColor=none;strokeColor=#FF99FF;" parent="1" vertex="1">
                    <mxGeometry x="-438.69" y="145" width="75.36" height="12" as="geometry"/>
                </mxCell>
                <mxCell id="86" value="" style="rounded=0;whiteSpace=wrap;html=1;fillColor=none;strokeColor=#FF8000;" parent="1" vertex="1">
                    <mxGeometry x="-417.64" y="147" width="75.36" height="12" as="geometry"/>
                </mxCell>
                <mxCell id="87" value="" style="rounded=0;whiteSpace=wrap;html=1;fillColor=none;strokeColor=#FF8000;" parent="1" vertex="1">
                    <mxGeometry x="-389.33" y="102.05999999999995" width="66.52" height="12" as="geometry"/>
                </mxCell>
            </root>
        </mxGraphModel>
    </diagram>
</mxfile>